# xmcd
#
# Track frame offsets:
#	150
#	18775
#	29953
#	39600
#	55910
#	77425
#	96860
#	108713
#	127738
#	142793
#	152913
#	161433
#	179628
#
# Disc length: 2604 seconds
#
# Revision: 4
# Processed by: cddbd v1.4PL0 Copyright (c) Steve Scherf et al.
# Submitted via: CDmax 1.8
#
DISCID=a40a2a0d
DTITLE=Wilmer X - Tungt Vatten
DYEAR=1986
DGENRE=Newage
TTITLE0=Din blekaste vän
TTITLE1=Skunk
TTITLE2=Gå hela vägen
TTITLE3=Atomskalle
TTITLE4=Sanningens pilot
TTITLE5=Tårar av guld
TTITLE6=Dansar på 1 ben
TTITLE7=Gå i topp
TTITLE8=Hm Hm
TTITLE9=Kyss dynamit
TTITLE10=O.K i natt
TTITLE11=Eld möter is
TTITLE12=Svart guld
EXTD=All text and musik av Nisse Hellberg\n\nNisse Hellberg - Sång and gitarr\nSte
EXTD=fan Björk - Bas and sång\nJalle Lorensson - Munspel\nSticky Bomb - Trummor,
EXTD=maracas and tamburin\nPelle Ossler - Solgitarr på 4, 8 and kompgitarr på 4\n
EXTD=Thomas Holst - Gitarr 12\nMats Bengtsson - Sång på 1, 3, orgel på 1, 2, 5
EXTD=and synt 13\nTomas Gabrielsson - sång på 11, 12, tamburin på 5, synt 13\n\
EXTD=nProducerad av Nisse Hellberg and Tomas Gabrielsson
EXTT0=
EXTT1=
EXTT2=
EXTT3=
EXTT4=
EXTT5=
EXTT6=
EXTT7=
EXTT8=
EXTT9=
EXTT10=
EXTT11=
EXTT12=
PLAYORDER=
